<svg xmlns="http://www.w3.org/2000/svg" width="32" height="32" viewBox="0 0 32 32" fill="none">
  <defs>
    <linearGradient id="icfEditorGrad" gradientUnits="userSpaceOnUse" x1="0" y1="0" x2="32" y2="32">
      <stop offset="0" stop-color="#34d399"/>
      <stop offset=".55" stop-color="#22d3ee"/>
      <stop offset="1" stop-color="#818cf8"/>
    </linearGradient>
  </defs>
  <rect x="1.5" y="1.5" width="29" height="29" rx="8" fill="none" stroke="url(#icfEditorGrad)" stroke-width="2"/>
  <path d="M10 10v12" stroke="url(#icfEditorGrad)" stroke-width="1.2" stroke-linecap="butt"/>
  <path d="M8 10h4M8 22h4" stroke="url(#icfEditorGrad)" stroke-width="1.2" stroke-linecap="butt"/>
  <path d="M14 10h8M14 16h6M17 22h3" stroke="url(#icfEditorGrad)" stroke-width="2" stroke-linecap="round"/>
  <path d="M23.8 21c0.9 0 1.6 0.7 1.6 1.6 0 1.3-0.8 2.4-2.2 3l-0.5-0.8c0.7-0.3 1.1-0.7 1.3-1.2-0.1 0-0.3 0.1-0.5 0.1-0.8 0-1.5-0.6-1.5-1.5 0-0.9 0.7-1.6 1.6-1.6z" fill="url(#icfEditorGrad)"/>
</svg>
